HIERARCHY
ROOT Bone
{
	OFFSET 0.000000 0.000000 0.000000
	CHANNELS 6 Xposition Yposition Zposition Xrotation Yrotation Zrotation
	JOINT Bone_L
	{
		OFFSET 0.000000 -0.095536 0.501822
		CHANNELS 3 Xrotation Yrotation Zrotation
		JOINT Bone_L.001
		{
			OFFSET 0.223613 0.093172 -0.100160
			CHANNELS 3 Xrotation Yrotation Zrotation
			End Site
			{
				OFFSET 0.000000 -0.347065 0.027952
			}
		}
	}
	JOINT Bone_R
	{
		OFFSET -0.000000 -0.095536 0.501822
		CHANNELS 3 Xrotation Yrotation Zrotation
		JOINT Bone_R.001
		{
			OFFSET -0.223613 0.093172 -0.100160
			CHANNELS 3 Xrotation Yrotation Zrotation
			End Site
			{
				OFFSET 0.000000 -0.347065 0.027952
			}
		}
	}
	JOINT Bone_L.003
	{
		OFFSET 0.102489 0.020929 0.331783
		CHANNELS 6 Xposition Yposition Zposition Xrotation Yrotation Zrotation
		JOINT Bone_L.004
		{
			OFFSET 0.181685 0.144416 -0.095501
			CHANNELS 3 Xrotation Yrotation Zrotation
			End Site
			{
				OFFSET -0.009317 0.004659 -0.235259
			}
		}
	}
	JOINT Bone_L.005
	{
		OFFSET 0.102489 0.020929 0.331783
		CHANNELS 6 Xposition Yposition Zposition Xrotation Yrotation Zrotation
		JOINT Bone_L.006
		{
			OFFSET 0.193332 -0.172368 -0.039598
			CHANNELS 3 Xrotation Yrotation Zrotation
			End Site
			{
				OFFSET 0.000000 0.002329 -0.291162
			}
		}
	}
	JOINT Bone_R.003
	{
		OFFSET -0.102489 0.020929 0.331783
		CHANNELS 6 Xposition Yposition Zposition Xrotation Yrotation Zrotation
		JOINT Bone_R.004
		{
			OFFSET -0.181685 0.144416 -0.095501
			CHANNELS 3 Xrotation Yrotation Zrotation
			End Site
			{
				OFFSET 0.009317 0.004659 -0.235259
			}
		}
	}
	JOINT Bone_R.005
	{
		OFFSET -0.102489 0.020929 0.331783
		CHANNELS 6 Xposition Yposition Zposition Xrotation Yrotation Zrotation
		JOINT Bone_R.006
		{
			OFFSET -0.193332 -0.172368 -0.039598
			CHANNELS 3 Xrotation Yrotation Zrotation
			End Site
			{
				OFFSET 0.000000 0.002329 -0.291162
			}
		}
	}
	JOINT Bone.001
	{
		OFFSET 0.000000 -0.095536 0.501822
		CHANNELS 3 Xrotation Yrotation Zrotation
		JOINT Bone.002
		{
			OFFSET -0.000000 -0.158392 0.149075
			CHANNELS 3 Xrotation Yrotation Zrotation
			End Site
			{
				OFFSET -0.000000 -0.202649 -0.041927
			}
		}
	}
}
MOTION
Frames: 20
Frame Time: 0.041667
0.000000 0.000000 0.000000 -0.000000 0.000000 -0.000000 -2.850228 -0.119220 -7.641740 2.395951 0.478365 4.720294 2.086136 -0.814776 -3.820008 -1.953267 0.406259 6.368418 0.102489 0.020929 0.331783 -9.090762 -2.845724 -6.723829 -7.766573 -0.411621 0.566202 0.102489 0.020929 0.331783 10.193811 -1.016202 7.447096 11.682219 1.363566 -0.581501 -0.102489 0.020929 0.331783 2.857586 -6.799618 -5.001383 13.389871 10.157524 -0.223397 -0.102489 0.020929 0.331783 -2.059288 -5.343051 4.374337 -12.831069 7.446031 0.734508 -0.000002 -0.000000 0.000000 -0.000001 -0.000000 -0.000000 
0.000000 0.000000 0.000000 -0.000000 0.000000 -0.000000 -2.713166 -0.106905 -7.327407 2.279621 0.443050 4.418021 1.954029 -0.776191 -3.507782 -1.832384 0.393342 6.064367 0.102489 0.020929 0.331783 -8.739240 -2.616794 -6.377886 -7.191553 -0.672476 0.509322 0.102489 0.020929 0.331783 9.843186 -0.877366 7.107638 11.016231 1.126637 -0.535736 -0.102489 0.020929 0.331783 2.556644 -6.505775 -4.707053 12.807521 9.893328 -0.184343 -0.102489 0.020929 0.331783 -1.742101 -5.137111 4.069641 -12.159142 7.210832 0.680111 -0.000002 -0.000000 0.000000 -0.000001 -0.000000 -0.000000 
0.000000 0.000000 0.000000 -0.000000 0.000000 -0.000000 -2.302139 -0.065413 -6.383970 1.929309 0.340746 3.510225 1.556212 -0.664689 -2.569970 -1.469938 0.350714 5.151822 0.102489 0.020929 0.331783 -7.691818 -1.916330 -5.347374 -5.464180 -1.459972 0.354101 0.102489 0.020929 0.331783 8.794971 -0.447881 6.093129 9.014543 0.410986 -0.414740 -0.102489 0.020929 0.331783 1.644348 -5.632248 -3.814428 11.060633 9.096863 -0.083545 -0.102489 0.020929 0.331783 -0.783264 -4.528640 3.148044 -10.141572 6.499781 0.533446 -0.000002 -0.000000 0.000000 -0.000001 -0.000000 -0.000000 
0.000000 0.000000 0.000000 -0.000000 0.000000 -0.000000 -1.643153 0.015419 -4.868430 1.363075 0.188003 2.050137 0.913212 -0.499184 -1.061247 -0.889024 0.270134 3.685976 0.102489 0.020929 0.331783 -6.033705 -0.750208 -3.716982 -2.684307 -2.737369 0.154056 0.102489 0.020929 0.331783 7.124889 0.281662 4.477861 5.790657 -0.750448 -0.272489 -0.102489 0.020929 0.331783 0.150282 -4.256727 -2.351406 8.257221 7.808525 0.026740 -0.102489 0.020929 0.331783 0.778211 -3.582374 1.645645 -6.898401 5.343887 0.350590 -0.000002 -0.000000 0.000000 -0.000001 -0.000000 -0.000000 
0.000000 0.000000 0.000000 -0.000000 0.000000 -0.000000 -0.807606 0.143492 -2.940345 0.636862 0.014520 0.189226 0.088627 -0.313081 0.862154 -0.152747 0.146105 1.821104 0.102489 0.020929 0.331783 -3.969081 0.803132 -1.688614 0.861708 -4.378834 -0.011016 0.102489 0.020929 0.331783 5.026791 1.278675 2.450735 1.675983 -2.242043 -0.186099 -0.102489 0.020929 0.331783 -1.801517 -2.559822 -0.438152 4.695119 6.159507 0.074786 -0.102489 0.020929 0.331783 2.801547 -2.436660 -0.303810 -2.770459 3.856072 0.213297 -0.000002 -0.000000 0.000000 -0.000001 -0.000000 -0.000000 
0.000000 0.000000 0.000000 -0.000000 0.000000 -0.000000 0.088775 0.313148 -0.861774 -0.152769 -0.146128 -1.821402 -0.807756 -0.143432 2.940725 0.636883 -0.014541 -0.189525 0.102489 0.020929 0.331783 -1.801077 2.560185 0.438999 4.697174 -6.159708 -0.074752 0.102489 0.020929 0.331783 2.801228 2.436948 0.303317 -2.773637 -3.856217 -0.213406 -0.102489 0.020929 0.331783 -3.969540 -0.802795 1.689480 0.859656 4.378631 0.011015 -0.102489 0.020929 0.331783 5.027123 -1.278404 -2.451234 1.679159 2.241894 0.186034 -0.000002 -0.000000 0.000000 -0.000001 -0.000000 -0.000000 
0.000000 0.000000 0.000000 -0.000000 0.000000 -0.000000 0.913323 0.499239 1.061531 -0.889042 -0.270153 -3.686199 -1.643267 -0.015375 4.868717 1.363090 -0.188025 -2.050366 0.102489 0.020929 0.331783 0.150599 4.257015 2.352041 8.258773 -7.808677 -0.026683 0.102489 0.020929 0.331783 0.777978 3.582600 -1.646015 -6.900804 -5.343989 -0.350706 -0.102489 0.020929 0.331783 -6.034066 0.750441 3.717642 -2.685858 2.737218 -0.154084 -0.102489 0.020929 0.331783 7.125143 -0.281467 -4.478250 5.793054 0.750339 0.272478 -0.000002 -0.000000 0.000000 -0.000001 -0.000000 -0.000000 
0.000000 0.000000 0.000000 -0.000000 0.000000 -0.000000 1.556270 0.664724 2.570117 -1.469949 -0.350721 -5.151942 -2.302200 0.065438 6.384118 1.929317 -0.340759 -3.510346 0.102489 0.020929 0.331783 1.644512 5.632405 3.814751 11.061458 -9.096942 0.083581 0.102489 0.020929 0.331783 -0.783387 4.528765 -3.148234 -10.142850 -6.499832 -0.533522 -0.102489 0.020929 0.331783 -7.692015 1.916443 5.347729 -5.465004 1.459893 -0.354126 -0.102489 0.020929 0.331783 8.795110 0.447983 -6.093339 9.015813 -0.411042 0.414749 -0.000002 -0.000000 0.000000 -0.000001 -0.000000 -0.000000 
0.000000 0.000000 0.000000 -0.000000 0.000000 -0.000000 1.954043 0.776203 3.507815 -1.832390 -0.393342 -6.064399 -2.713183 0.106913 7.327441 2.279623 -0.443058 -4.418055 0.102489 0.020929 0.331783 2.556692 6.505821 4.707141 12.807752 -9.893349 0.184361 0.102489 0.020929 0.331783 -1.742135 5.137145 -4.069693 -12.159495 -7.210846 -0.680138 -0.102489 0.020929 0.331783 -8.739296 2.616822 6.377975 -7.191781 0.672453 -0.509331 -0.102489 0.020929 0.331783 9.843220 0.877397 -7.107690 11.016579 -1.126649 0.535740 -0.000002 -0.000000 0.000000 -0.000001 -0.000000 -0.000000 
0.000000 0.000000 0.000000 -0.000000 0.000000 -0.000000 2.086134 0.814782 3.820001 -1.953270 -0.406264 -6.368419 -2.850228 0.119226 7.641731 2.395954 -0.478364 -4.720297 0.102489 0.020929 0.331783 2.857589 6.799617 5.001375 13.389878 -10.157526 0.223397 0.102489 0.020929 0.331783 -2.059288 5.343050 -4.374335 -12.831071 -7.446033 -0.734511 -0.102489 0.020929 0.331783 -9.090766 2.845721 6.723830 -7.766572 0.411617 -0.566199 -0.102489 0.020929 0.331783 10.193809 1.016205 -7.447098 11.682217 -1.363563 0.581500 -0.000002 -0.000000 0.000000 -0.000001 -0.000000 -0.000000 
0.000000 0.000000 0.000000 -0.000000 0.000000 -0.000000 1.979256 0.783504 3.567371 -1.855442 -0.395855 -6.122389 -2.739318 0.109320 7.387389 2.301828 -0.449745 -4.475712 0.102489 0.020929 0.331783 2.614200 6.561752 4.763375 12.918772 -9.943790 0.191598 0.102489 0.020929 0.331783 -1.802716 5.176297 -4.127889 -12.287599 -7.255776 -0.690299 -0.102489 0.020929 0.331783 -8.806238 2.660654 6.443845 -7.301430 0.622642 -0.519979 -0.102489 0.020929 0.331783 9.910044 0.904037 -7.172377 11.143577 -1.171901 0.544256 -0.000002 -0.000000 0.000000 -0.000001 -0.000000 -0.000000 
0.000000 0.000000 0.000000 -0.000000 0.000000 -0.000000 1.656625 0.692185 2.806355 -1.561167 -0.362002 -5.381724 -2.405647 0.076522 6.621677 2.017697 -0.365998 -3.739016 0.102489 0.020929 0.331783 1.875509 5.851147 4.040788 11.501093 -9.297963 0.106643 0.102489 0.020929 0.331783 -1.025793 4.680599 -3.381283 -10.650806 -6.679575 -0.568087 -0.102489 0.020929 0.331783 -7.954668 2.094693 5.606063 -5.900072 1.260978 -0.391015 -0.102489 0.020929 0.331783 9.058460 0.557920 -6.348158 9.520046 -0.591855 0.442897 -0.000002 -0.000000 0.000000 -0.000001 -0.000000 -0.000000 
0.000000 0.000000 0.000000 -0.000000 0.000000 -0.000000 1.129119 0.552771 1.566938 -1.083345 -0.298787 -4.176955 -1.863695 0.013627 5.376105 1.553142 -0.237568 -2.539448 0.102489 0.020929 0.331783 0.654716 4.713593 2.845771 9.196777 -8.241041 0.003135 0.102489 0.020929 0.331783 0.252322 3.895022 -2.151959 -7.986483 -5.732626 -0.404624 -0.102489 0.020929 0.331783 -6.585771 1.146351 4.259933 -3.617044 2.308043 -0.214237 -0.102489 0.020929 0.331783 7.682317 -0.031854 -5.016951 6.873138 0.360100 0.312896 -0.000002 -0.000000 0.000000 -0.000001 -0.000000 -0.000000 
0.000000 0.000000 0.000000 -0.000000 0.000000 -0.000000 0.434247 0.387578 -0.057384 -0.460090 -0.200892 -2.600808 -1.156530 -0.086479 3.746528 0.941171 -0.084200 -0.967737 0.102489 0.020929 0.331783 -0.978425 3.261848 1.245612 6.185131 -6.849775 -0.067231 0.102489 0.020929 0.331783 1.950682 2.907642 -0.516493 -4.498596 -4.479801 -0.257726 -0.102489 0.020929 0.331783 -4.826209 -0.144374 2.530792 -0.623461 3.690845 -0.045694 -0.102489 0.020929 0.331783 5.900208 -0.852505 -3.294462 3.400117 1.617171 0.209171 -0.000002 -0.000000 0.000000 -0.000001 -0.000000 -0.000000 
0.000000 0.000000 0.000000 -0.000000 0.000000 -0.000000 -0.358659 0.224248 -1.900765 0.242754 -0.069268 -0.815785 -0.358784 -0.224194 1.901081 0.242770 0.069245 0.815535 0.102489 0.020929 0.331783 -2.877199 1.671572 -0.616803 2.778150 -5.268721 -0.057831 0.102489 0.020929 0.331783 3.908787 1.847368 1.371613 -0.547640 -3.049383 -0.184047 -0.102489 0.020929 0.331783 -2.877574 -1.671277 0.617522 2.776428 5.268551 0.057842 -0.102489 0.020929 0.331783 3.909060 -1.847132 -1.372029 -0.544976 3.049258 0.183971 -0.000002 -0.000000 0.000000 -0.000001 -0.000000 -0.000000 
0.000000 0.000000 0.000000 -0.000000 0.000000 -0.000000 -1.156416 0.086522 -3.746244 0.941155 0.084181 0.967514 0.434136 -0.387528 0.057666 -0.460072 0.200875 2.600584 0.102489 0.020929 0.331783 -4.825858 0.144621 -2.530145 -0.621922 -3.690997 0.045676 0.102489 0.020929 0.331783 5.899957 0.852704 3.294088 3.397736 -1.617282 -0.209201 -0.102489 0.020929 0.331783 -0.978750 -3.261569 -1.244979 6.183592 6.849626 0.067268 -0.102489 0.020929 0.331783 1.950920 -2.907422 0.516126 -4.496211 4.479693 0.257627 -0.000002 -0.000000 0.000000 -0.000001 -0.000000 -0.000000 
0.000000 0.000000 0.000000 -0.000000 0.000000 -0.000000 -1.863615 -0.013598 -5.375910 1.553130 0.237552 2.539285 1.129043 -0.552730 -1.566742 -1.083333 0.298774 4.176791 0.102489 0.020929 0.331783 -6.585516 -1.146189 -4.259473 -3.615964 -2.308146 0.214211 0.102489 0.020929 0.331783 7.682137 0.031989 5.016681 6.871467 -0.360176 -0.312894 -0.102489 0.020929 0.331783 0.654496 -4.713388 -2.845339 9.195689 8.240932 -0.003092 -0.102489 0.020929 0.331783 0.252485 -3.894863 2.151707 -7.984804 5.732554 0.404537 -0.000002 -0.000000 0.000000 -0.000001 -0.000000 -0.000000 
0.000000 0.000000 0.000000 -0.000000 0.000000 -0.000000 -2.405606 -0.076503 -6.621584 2.017690 0.365993 3.738934 1.656586 -0.692163 -2.806262 -1.561161 0.361992 5.381646 0.102489 0.020929 0.331783 -7.954536 -2.094618 -5.605833 -5.899517 -1.261035 0.390995 0.102489 0.020929 0.331783 9.058367 -0.557852 6.348017 9.519197 0.591819 -0.442890 -0.102489 0.020929 0.331783 1.875400 -5.851042 -4.040571 11.500532 9.297911 -0.106614 -0.102489 0.020929 0.331783 -1.025712 -4.680516 3.381158 -10.649948 6.679540 0.568036 -0.000002 -0.000000 0.000000 -0.000001 -0.000000 -0.000000 
0.000000 0.000000 0.000000 -0.000000 0.000000 -0.000000 -2.739306 -0.109311 -7.387366 2.301824 0.449739 4.475687 1.979246 -0.783498 -3.567351 -1.855438 0.395853 6.122367 0.102489 0.020929 0.331783 -8.806199 -2.660639 -6.443793 -7.301283 -0.622655 0.519975 0.102489 0.020929 0.331783 9.910019 -0.904018 7.172342 11.143349 1.171891 -0.544261 -0.102489 0.020929 0.331783 2.614168 -6.561722 -4.763327 12.918613 9.943770 -0.191587 -0.102489 0.020929 0.331783 -1.802696 -5.176275 4.127858 -12.287369 7.255765 0.690283 -0.000002 -0.000000 0.000000 -0.000001 -0.000000 -0.000000 
0.000000 0.000000 0.000000 -0.000000 0.000000 -0.000000 -2.850228 -0.119220 -7.641740 2.395951 0.478365 4.720294 2.086136 -0.814776 -3.820008 -1.953267 0.406259 6.368418 0.102489 0.020929 0.331783 -9.090762 -2.845724 -6.723829 -7.766573 -0.411621 0.566202 0.102489 0.020929 0.331783 10.193811 -1.016202 7.447096 11.682219 1.363566 -0.581501 -0.102489 0.020929 0.331783 2.857586 -6.799618 -5.001383 13.389871 10.157524 -0.223397 -0.102489 0.020929 0.331783 -2.059288 -5.343051 4.374337 -12.831069 7.446031 0.734508 -0.000002 -0.000000 0.000000 -0.000001 -0.000000 -0.000000 
